<svg width="300" height="300" viewBox="0 0 300 300" fill="none" xmlns="http://www.w3.org/2000/svg">
<g clip-path="url(#clip0_13_2852)">
<path d="M9.37254 97.1482C15.024 84.7448 20.7956 72.4214 29.1178 61.4872C56.115 26.0061 91.5745 5.52705 136.106 0.889526C143.088 0.159915 150.06 0.339819 157.042 0C195.572 2.6186 229.071 16.811 256.358 44.3064C281.105 69.2331 295.279 99.347 299.13 134.398C307.422 210.018 256.288 282.899 176.617 297.561C95.3555 312.513 15.8443 257.023 2.24063 176.176C-2.0305 150.8 -0.270034 125.853 8.09219 101.436C8.57232 100.027 8.94242 98.5774 9.36253 97.1382L9.37254 97.1482Z" fill="#CD4097"/>
<path d="M62.4366 225.16C67.458 220.552 71.469 217.114 75.21 213.396C86.493 202.192 87.0232 191.248 76.7404 179.094C65.9476 166.331 59.7059 151.939 60.096 134.988C60.7662 105.983 83.3622 80.4271 112.05 75.9195C124.583 73.9506 136.536 74.8601 147.719 81.2467C149.36 82.1862 150.7 82.2461 152.331 81.2467C178.578 65.0453 225.01 79.7075 237.133 118.297C244.175 140.705 237.473 159.405 222.269 175.946C206.395 193.217 186.78 205.36 166.274 216.195C149.42 225.1 151.81 225.62 134.326 215.205C129.895 212.577 125.283 210.208 121.072 207.279C117.681 204.921 115.221 204.971 111.97 207.679C98.1061 219.263 81.1416 222.401 62.4366 225.17V225.16Z" fill="white"/>
<path d="M87.8034 211.277C89.7139 206.76 91.6444 203.292 92.1146 199.274C93.1548 190.328 90.6142 182.563 84.8126 175.756C76.1603 165.612 69.6586 154.618 68.7083 140.755C67.1079 117.577 80.7415 95.4591 102.477 87.2934C118.061 81.4366 133.316 81.0068 147.619 91.0314C149.41 92.2908 150.82 92.1508 152.571 90.9615C169.755 79.3277 187.34 81.2666 204.354 90.7216C222.189 100.626 231.372 116.498 231.502 136.937C231.592 150.12 224.83 160.724 216.258 170.099C199.953 187.93 179.278 199.614 158.392 211.087C152.461 214.346 147.989 214.206 142.558 210.458C136.286 206.13 129.415 202.682 122.863 198.754C117.801 195.726 113.23 196.115 108.679 199.913C102.787 204.841 96.2357 208.649 87.8134 211.277H87.8034Z" fill="#CD4097"/>
<path d="M149.97 136.807C155.952 136.777 160.493 141.245 160.483 147.112C160.463 152.938 155.812 157.706 150.1 157.756C144.399 157.796 139.677 153.078 139.597 147.241C139.517 141.355 144.008 136.837 149.98 136.807H149.97Z" fill="#FFFEFE"/>
<path d="M178.678 147.142C178.718 141.095 183.059 136.777 189.09 136.807C194.972 136.837 199.583 141.395 199.613 147.211C199.643 152.769 194.642 157.756 189.04 157.756C183.379 157.756 178.648 152.908 178.678 147.152V147.142Z" fill="#FFFEFE"/>
<path d="M121.382 147.221C121.382 152.968 116.591 157.806 110.94 157.746C105.338 157.696 100.377 152.669 100.447 147.122C100.527 141.285 105.138 136.787 111.04 136.797C117.061 136.797 121.372 141.155 121.372 147.211L121.382 147.221Z" fill="#FFFEFE"/>
</g>
<defs>
<clipPath id="clip0_13_2852">
<rect width="300" height="300" fill="white"/>
</clipPath>
</defs>
</svg>
