<svg width="50" height="50" viewBox="0 0 50 50" fill="none" xmlns="http://www.w3.org/2000/svg">
    <rect width="50" height="50" fill="white" rx="25" ry="25" />
    <g clip-path="url(#clip0_849_248)">
        <path fill-rule="evenodd" clip-rule="evenodd"
            d="M25 50C38.8071 50 50 38.8071 50 25C50 11.1929 38.8071 0 25 0C11.1929 0 0 11.1929 0 25C0 38.8071 11.1929 50 25 50ZM33.3571 23.5909C33.9965 23.5903 34.6289 23.7264 35.2143 23.9906C36.0417 24.3626 36.7457 24.9742 37.2404 25.7508C37.7352 26.5274 37.9991 27.4353 38 28.3636V35.0455C38 35.2986 37.9022 35.5414 37.728 35.7204C37.5539 35.8994 37.3177 36 37.0714 36C36.8252 36 36.589 35.8994 36.4148 35.7204C36.2407 35.5414 36.1429 35.2986 36.1429 35.0455V34.5682C36.1413 34.4421 36.092 34.3216 36.0052 34.2324C35.9185 34.1432 35.8012 34.0925 35.6786 34.0909H14.3214C14.1988 34.0925 14.0815 34.1432 13.9948 34.2324C13.908 34.3216 13.8586 34.4421 13.8571 34.5682V35.0455C13.8571 35.2986 13.7593 35.5414 13.5852 35.7204C13.411 35.8994 13.1748 36 12.9286 36C12.6823 36 12.4461 35.8994 12.272 35.7204C12.0978 35.5414 12 35.2986 12 35.0455V28.3636C12.0008 27.4352 12.2647 26.5272 12.7594 25.7505C13.2541 24.9738 13.9582 24.362 14.7857 23.99C15.3712 23.7262 16.0036 23.5903 16.6429 23.5909H33.3571ZM18.0357 15H31.9643C32.8262 15 33.6529 15.352 34.2624 15.9785C34.8719 16.6051 35.2143 17.4548 35.2143 18.3409V22.6364C35.2143 22.6734 35.206 22.7099 35.19 22.7431C35.1739 22.7762 35.1506 22.8051 35.1218 22.8274C35.0931 22.8497 35.0596 22.8648 35.0242 22.8715C34.9888 22.8782 34.9523 22.8763 34.9177 22.8661C34.4108 22.7134 33.8853 22.6361 33.3571 22.6364H33.1134C33.0561 22.6367 33.0007 22.6153 32.9578 22.5762C32.915 22.5371 32.8877 22.4831 32.8812 22.4246C32.8306 21.9578 32.6143 21.5267 32.2738 21.2136C31.9334 20.9004 31.4926 20.7273 31.0357 20.7273H27.7857C27.3295 20.7282 26.8895 20.9017 26.5498 21.2148C26.21 21.5278 25.9943 21.9585 25.9437 22.4246C25.9372 22.4831 25.9099 22.5371 25.8671 22.5762C25.8242 22.6153 25.7688 22.6367 25.7115 22.6364H24.292C24.2347 22.6367 24.1793 22.6153 24.1364 22.5762C24.0935 22.5371 24.0663 22.4831 24.0598 22.4246C24.0091 21.9578 23.7929 21.5267 23.4524 21.2136C23.1119 20.9004 22.6711 20.7273 22.2143 20.7273H18.9643C18.5077 20.7277 18.0674 20.9011 17.7273 21.2142C17.3871 21.5273 17.1711 21.9582 17.1205 22.4246C17.114 22.4831 17.0868 22.5371 17.0439 22.5762C17.0011 22.6153 16.9456 22.6367 16.8883 22.6364H16.6429C16.1147 22.6359 15.5892 22.713 15.0823 22.8655C15.0477 22.8757 15.0113 22.8776 14.9759 22.8709C14.9405 22.8642 14.9072 22.8492 14.8784 22.827C14.8496 22.8047 14.8263 22.776 14.8102 22.7429C14.7941 22.7098 14.7857 22.6733 14.7857 22.6364V18.3409C14.7857 17.4548 15.1281 16.6051 15.7376 15.9785C16.3471 15.352 17.1738 15 18.0357 15Z"
            fill="#1276D1"></path>
    </g>
    <defs>
        <clipPath id="clip0_849_248">
            <rect width="50" height="50" fill="white"></rect>
        </clipPath>
    </defs>
</svg>