<svg width="50" height="50" viewBox="0 0 50 50" fill="none" xmlns="http://www.w3.org/2000/svg">
    <rect width="50" height="50" fill="white" rx="25" ry="25" />
    <g clip-path="url(#clip0_849_250)">
        <path fill-rule="evenodd" clip-rule="evenodd"
            d="M25 50C38.8071 50 50 38.8071 50 25C50 11.1929 38.8071 0 25 0C11.1929 0 0 11.1929 0 25C0 38.8071 11.1929 50 25 50ZM38.181 14.1004C38.6483 14.7068 35.6332 17.9026 32.8395 20.1042L32.8256 20.1282C32.7492 20.1874 32.6734 20.2455 32.5983 20.3031C32.417 20.4421 32.2399 20.5779 32.0689 20.7171C32.0392 21.2131 31.9777 22.236 31.8946 23.5175L31.9224 23.4694L32.667 22.8736C32.7586 22.7983 32.9066 22.8196 32.987 22.9301L33.5588 23.6609C33.6392 23.7715 33.6369 23.9143 33.5453 23.9897L32.8006 24.5855C32.7678 24.6146 32.6558 24.6142 32.6558 24.6142L31.7817 25.2955C31.7376 26.0302 31.6858 26.8023 31.6334 27.5837C31.6063 27.9885 31.579 28.3957 31.5526 28.8015L32.2903 28.2177C32.3819 28.1423 32.5299 28.1636 32.6103 28.2742L33.1821 29.005C33.2625 29.1155 33.2601 29.2584 33.1686 29.3338L32.4239 29.9296C32.391 29.9587 32.2791 29.9582 32.2791 29.9582L31.4308 30.6225C31.2245 33.6448 31.0411 36.1834 30.9994 36.2555C30.8884 36.4479 29.745 37.2623 29.745 37.2623C29.4841 37.4643 29.258 37.6062 29.2289 37.5733C29.2118 37.5474 29.4884 37.2904 29.7303 37.0935L29.0158 31.2797C28.8017 31.4286 28.6102 31.5103 28.564 31.4516C28.5178 31.3928 28.6806 31.1663 28.9535 30.9712L28.9674 30.9472L28.8314 29.7948C28.6241 29.9316 28.4516 30.0083 28.4054 29.9496C28.3472 29.8839 28.522 29.6643 28.7829 29.4623L28.6533 28.4098L28.3705 27.7337C28.1355 27.9185 27.9061 28.0105 27.8599 27.9518C27.8017 27.8861 27.9765 27.6665 28.2374 27.4645L28.2444 27.4525L27.6788 26.1002C27.4318 26.2781 27.2144 26.377 27.1682 26.3182C27.11 26.2526 27.2848 26.033 27.5457 25.831L27.0347 24.6063C26.8015 24.785 26.586 24.95 26.3827 25.1058C25.1817 26.0255 24.4044 26.6207 22.9195 27.792C21.5 28.7516 20.1342 29.6459 18.9395 30.3826C18.8257 31.9677 18.6156 35.4687 18.6156 35.4687L17.8843 36.1524L16.0016 32.0843C15.6807 32.2516 15.4254 32.3606 15.2478 32.4184C14.6641 32.8187 14.2774 33.0442 14.2312 32.9855C14.197 32.9337 14.5153 32.6045 15.0615 32.1025C15.1587 31.9342 15.3026 31.7128 15.4983 31.4571L12 28.7161L12.8358 28.1569C12.8358 28.1569 16.0855 28.7188 17.7113 28.9843C18.7438 27.9456 20.0075 26.7839 21.3983 25.6797C22.2556 25.003 22.8584 24.5115 23.6359 23.8777C24.1134 23.4884 24.6568 23.0453 25.3655 22.4726L24.2809 21.6862L24.274 21.6982C24.0131 21.9002 23.7699 22.0162 23.7116 21.9505C23.6654 21.8918 23.8074 21.7013 24.0304 21.5094L22.8445 20.6485L22.8376 20.6605C22.5767 20.8625 22.3334 20.9785 22.2752 20.9128C22.217 20.8471 22.3779 20.6516 22.6009 20.4598L22.0175 20.0268L21.0257 19.6625C20.7648 19.8645 20.5215 19.9805 20.4633 19.9148C20.4171 19.8561 20.5383 19.7017 20.7164 19.532L19.6215 19.1243L19.6076 19.1483C19.3467 19.3503 19.1035 19.4663 19.0452 19.4006C19.0041 19.3608 19.1202 19.1875 19.3172 19.0127L13.8308 16.967C13.5769 17.157 13.273 17.3502 13.249 17.3363C13.2198 17.3035 13.4118 17.1098 13.6727 16.9078C13.6727 16.9078 14.7476 15.9898 14.9562 15.9339C15.032 15.9136 17.5387 16.319 20.5373 16.8161L21.3856 16.1519L21.462 16.0197L22.2067 15.4239C22.2983 15.3485 22.4462 15.3698 22.5267 15.4804L23.0984 16.2112C23.1789 16.3217 23.1765 16.4646 23.0849 16.54L22.3472 17.1238C22.9983 17.2321 23.6569 17.3447 24.3018 17.455C24.8157 17.5428 25.3209 17.6292 25.8068 17.7108L26.681 17.0294L26.7574 16.8972L27.5021 16.3014C27.5936 16.226 27.7416 16.2474 27.822 16.3579L28.3938 17.0887C28.4742 17.1993 28.4719 17.3421 28.3803 17.4175L27.6356 18.0133C27.6215 18.0226 27.608 18.0228 27.5975 18.0229C27.5886 18.023 27.5819 18.0231 27.5787 18.0286C28.8656 18.2426 29.8875 18.4159 30.3674 18.5006C30.6094 18.3037 30.8513 18.1068 31.1121 17.9048C33.9059 15.7032 37.6947 13.4991 38.181 14.1004Z"
            fill="#1276D1"></path>
    </g>
    <defs>
        <clipPath id="clip0_849_250">
            <rect width="50" height="50" fill="white"></rect>
        </clipPath>
    </defs>
</svg>